<?xml version="1.0" encoding="utf-8"?>
<!-- Generator: Adobe Illustrator 27.9.0, SVG Export Plug-In . SVG Version: 6.00 Build 0)  -->
<svg version="1.1" id="Layer_1" xmlns="http://www.w3.org/2000/svg" xmlns:xlink="http://www.w3.org/1999/xlink" x="0px" y="0px"
	 viewBox="35 16 165 100" style="enable-background:new 0 0 200 100;" xml:space="preserve" preserveAspectRatio="none">
<style type="text/css">
	.st0{fill:#0071BB;}
</style>
<g>
	<g>
		<path class="st0" d="M121.88,17.73c-11.9-0.44-23.82-0.88-35.72-0.17c-5.89,0.35-11.77,0.99-17.58,2.04
			c-5.2,0.93-10.4,2.13-15.28,4.18c-4.52,1.9-8.74,4.6-11.9,8.39c-3.17,3.81-5.29,8.37-6.54,13.15c-1.29,4.89-2.07,10.35-0.96,15.34
			c1,4.49,3.86,8.12,7.52,10.8c3.6,2.64,7.88,4.32,12.14,5.54c5.58,1.6,11.31,2.6,17.07,3.22c11.38,1.21,23.09,1.04,34.43-0.45
			c19.61-2.58,43.96-11.75,48.5-33.6c1.03-4.97,0.83-10.28-1.14-15c-1.85-4.44-5.24-7.87-9.51-10.04
			c-4.17-2.12-8.78-3.15-13.37-3.84c-5.46-0.82-10.96-1.34-16.48-1.48C92.57,15.3,71.59,20.4,55.95,34.22
			c-6.86,6.07-12.42,13.62-15.77,22.17c-1.61,4.11-3.73,9.64-1.68,13.92c1,2.08,2.93,3.47,4.95,4.46c2.51,1.24,5.19,2.22,7.86,3.05
			c10.12,3.18,20.97,4.49,31.56,4.55c10.4,0.05,20.84-1.25,30.91-3.84c10.14-2.6,19.96-6.53,29.08-11.67
			c8.29-4.68,17.2-10.63,21.2-19.65c3.5-7.88,2.8-18.25-4.44-23.82c-4.18-3.21-9.56-4.4-14.61-5.5c-5.76-1.26-11.61-2.14-17.48-2.65
			c-5.74-0.5-11.51-0.63-17.27-0.41c-1.92,0.07-1.93,3.07,0,3c11.07-0.42,22.17,0.47,33.01,2.75c4.81,1.01,10.09,2,14.17,4.91
			c3.28,2.34,5.16,6.12,5.58,10.07c0.98,9.14-4.71,16.75-11.56,22.12c-7.52,5.89-16.45,10.35-25.33,13.76
			c-18.28,7.02-38.26,9.49-57.68,6.97c-5.06-0.66-10.12-1.64-15.02-3.08c-2.53-0.74-5.03-1.6-7.44-2.67
			c-1.94-0.86-4.18-1.94-4.97-4.06c-0.81-2.19-0.09-4.7,0.51-6.85c0.57-2.01,1.26-3.99,2.09-5.91c1.72-3.95,3.95-7.69,6.56-11.1
			C61.6,29.85,79.46,21.69,97.79,19.49c10.27-1.23,20.74-0.85,30.96,0.69c8.49,1.28,18.06,3.98,21.23,12.94
			c3.26,9.21-0.38,19.51-6.68,26.51c-6.6,7.35-15.87,11.8-25.24,14.47c-10.18,2.9-20.83,3.76-31.38,3.84
			c-10.88,0.08-21.84-0.83-32.34-3.84c-7.81-2.24-16.63-6.6-17.8-15.58c-0.63-4.8,0.34-9.98,1.82-14.55
			c1.4-4.32,3.64-8.42,6.91-11.6c7.02-6.84,17.61-8.91,26.94-10.37c11.06-1.73,22.31-1.97,33.48-1.78
			c5.39,0.09,10.79,0.29,16.18,0.49C123.81,20.8,123.81,17.8,121.88,17.73L121.88,17.73z"/>
	</g>
</g>
</svg>
