<?xml version="1.0" encoding="iso-8859-1"?>
<!-- Generator: Adobe Illustrator 19.0.0, SVG Export Plug-In . SVG Version: 6.00 Build 0)  -->
<svg version="1.1" id="Layer_1" xmlns="http://www.w3.org/2000/svg" xmlns:xlink="http://www.w3.org/1999/xlink" x="0px" y="0px"
	 viewBox="0 0 248.941 248.941" style="enable-background:new 0 0 248.941 248.941;" xml:space="preserve">
<g>
	<g>
		<g>
			<g id="XMLID_17_">
				<g>
					<path style="fill:#F47C6D;" d="M124.471,49.41c40.609,0,73.619,33.04,73.619,73.649s-33.01,73.649-73.619,73.649
						s-73.649-33.04-73.649-73.649S83.861,49.41,124.471,49.41z"/>
					<path style="fill:#2D213F;" d="M241.162,116.691c4.295,0,7.779,3.484,7.779,7.779s-3.484,7.779-7.779,7.779h-14.117
						c-4.295,0-7.779-3.484-7.779-7.779c0-4.295,3.484-7.779,7.779-7.779C227.045,116.691,241.162,116.691,241.162,116.691z"/>
					<path style="fill:#2D213F;" d="M124.471,33.851c49.17,0,89.208,40.008,89.208,89.208s-40.038,89.208-89.208,89.208
						c-49.2,0-89.208-40.008-89.208-89.208S75.271,33.851,124.471,33.851z M198.09,123.059c0-40.609-33.01-73.649-73.619-73.649
						s-73.649,33.04-73.649,73.649s33.04,73.649,73.649,73.649S198.09,163.668,198.09,123.059z"/>
					<path style="fill:#2D213F;" d="M212.477,36.464c3.034,3.034,3.034,7.96,0,10.993l-9.972,10.002
						c-1.532,1.502-3.514,2.253-5.497,2.253c-2.012,0-3.995-0.751-5.527-2.253c-3.034-3.064-3.034-7.99,0-11.023l10.002-9.972
						C204.518,33.43,209.443,33.43,212.477,36.464z"/>
					<path style="fill:#2D213F;" d="M212.477,201.484c3.034,3.034,3.034,7.96,0,10.993c-1.502,1.532-3.514,2.283-5.497,2.283
						c-1.982,0-3.995-0.751-5.497-2.283l-10.002-9.972c-3.034-3.034-3.034-7.96,0-10.993c3.064-3.064,7.99-3.064,11.023,0
						L212.477,201.484z"/>
					<path style="fill:#2D213F;" d="M132.25,227.045v14.117c0,4.295-3.484,7.779-7.779,7.779c-4.295,0-7.779-3.484-7.779-7.779
						v-14.117c0-4.295,3.484-7.779,7.779-7.779C128.766,219.265,132.25,222.75,132.25,227.045z"/>
					<path style="fill:#2D213F;" d="M132.25,7.779v14.117c0,4.295-3.484,7.779-7.779,7.779c-4.295,0-7.779-3.484-7.779-7.779V7.779
						c0-4.295,3.484-7.779,7.779-7.779C128.766,0,132.25,3.484,132.25,7.779z"/>
					<path style="fill:#2D213F;" d="M57.43,46.436c3.064,3.034,3.064,7.96,0,11.023c-1.502,1.502-3.514,2.253-5.497,2.253
						s-3.995-0.751-5.497-2.253l-9.972-10.002c-3.064-3.034-3.064-7.96,0-10.993c3.034-3.034,7.96-3.034,10.993,0L57.43,46.436z"/>
					<path style="fill:#2D213F;" d="M57.43,191.512c3.064,3.034,3.064,7.96,0,10.993l-9.972,9.972
						c-1.502,1.532-3.514,2.283-5.497,2.283s-3.995-0.751-5.497-2.283c-3.064-3.034-3.064-7.96,0-10.993l9.972-9.972
						C49.47,188.448,54.396,188.448,57.43,191.512z"/>
					<path style="fill:#2D213F;" d="M21.897,116.691c4.295,0,7.779,3.484,7.779,7.779s-3.484,7.779-7.779,7.779H7.779
						c-4.295,0-7.779-3.484-7.779-7.779c0-4.295,3.484-7.779,7.779-7.779C7.779,116.691,21.897,116.691,21.897,116.691z"/>
				</g>
			</g>
		</g>
		<path style="fill:#EF685E;" d="M113.003,50.308c38.008,15.946,71.369,52.044,68.558,119.19
			c10.324-12.681,16.526-28.847,16.526-46.439c0-40.609-33.01-73.649-73.619-73.649C120.569,49.41,116.742,49.719,113.003,50.308z"
			/>
	</g>
</g>
<g>
</g>
<g>
</g>
<g>
</g>
<g>
</g>
<g>
</g>
<g>
</g>
<g>
</g>
<g>
</g>
<g>
</g>
<g>
</g>
<g>
</g>
<g>
</g>
<g>
</g>
<g>
</g>
<g>
</g>
</svg>
